#!OML:ASF E:\Style4\Style4.ASF
:FULLY-SPECIFIED
:DEGREES
2141
root 0.377034 16.3795 -0.0125428 4.73848 8.22863 4.06542
lowerback 13.9176 3.98958 -1.45014
upperback 5.43646 5.06037 -0.686667
thorax -2.11028 2.51523 -0.683317
lowerneck -1.8041 -2.27443 -4.24613
upperneck 18.6123 -2.89144 1.42529
head 6.00857 -1.54084 0.999778
rclavicle 5.06901e-014 -7.95139e-015
rhumerus -30.1744 26.6697 -45.287
rradius 136.597
rwrist -76.3709
rhand 45.4231 0.764521
rfingers 7.12502
rthumb 66.7079 -3.28487
lclavicle 5.06901e-014 -7.95139e-015
lhumerus -16.6828 -20.1084 39.357
lradius 138.918
lwrist 74.6229
lhand 34.4288 45.0374
lfingers 7.12502
lthumb 57.6385 61.0788
rfemur -30.682 -11.4524 14.0008
rtibia 63.4905
rfoot -30.3894 -22.0693
rtoes -16.3908
lfemur -31.2585 -3.42485 -24.6783
ltibia 59.2949
lfoot -30.7704 9.66586
ltoes -15.33
2142
root 0.376467 16.3774 -0.0227534 4.78021 8.27702 3.95381
lowerback 13.9751 3.98942 -1.30988
upperback 5.36906 5.07604 -0.682151
thorax -2.20041 2.52408 -0.76617
lowerneck -1.45492 -2.29234 -4.2306
upperneck 17.3448 -2.95772 1.55988
head 5.55342 -1.56155 1.04183
rclavicle -1.39149e-015 -5.56597e-015
rhumerus -29.5792 27.1879 -43.8053
rradius 136.69
rwrist -76.6896
rhand 45.4418 0.747167
rfingers 7.12502
rthumb 66.7221 -3.27369
lclavicle -1.39149e-015 -5.56597e-015
lhumerus -15.4106 -20.5771 37.5863
lradius 138.991
lwrist 75.3375
lhand 33.8482 45.1793
lfingers 7.12502
lthumb 57.1294 61.657
rfemur -30.8204 -11.4506 14.1497
rtibia 63.5409
rfoot -30.4001 -22.0549
rtoes -16.2771
lfemur -31.4345 -3.45378 -24.541
ltibia 59.3944
lfoot -30.7739 9.59072
ltoes -15.1719
2143
root 0.377499 16.3771 -0.0278893 4.81956 8.28304 3.87505
lowerback 14.0079 4.01914 -1.18015
upperback 5.29355 5.12964 -0.699812
thorax -2.28434 2.55169 -0.870732
lowerneck -0.787519 -2.31249 -4.10198
upperneck 15.5769 -3.03531 1.64641
head 4.8926 -1.58541 1.05529
rclavicle 7.03698e-014 -3.33958e-014
rhumerus -29.0501 27.6933 -42.3297
rradius 136.797
rwrist -77.039
rhand 45.4713 0.905975
rfingers 7.12502
rthumb 66.7443 -3.06984
lclavicle 7.03698e-014 -3.33958e-014
lhumerus -14.241 -21.2884 35.8609
lradius 139.226
lwrist 76.177
lhand 32.7407 45.3289
lfingers 7.12502
lthumb 56.1526 62.5996
rfemur -30.9209 -11.4432 14.2429
rtibia 63.5733
rfoot -30.4178 -22.0108
rtoes -16.1049
lfemur -31.5496 -3.45 -24.4575
ltibia 59.4705
lfoot -30.838 9.64543
ltoes -15.4448
2144
root 0.377417 16.3757 -0.0325615 4.82789 8.28373 3.82666
lowerback 14.0823 4.059 -1.10285
upperback 5.22991 5.18921 -0.712898
thorax -2.38273 2.58151 -0.945193
lowerneck 0.087653 -2.30488 -4.15056
upperneck 13.0489 -3.07882 1.86828
head 4.39677 -1.6042 1.24747
rclavicle 5.725e-014 -3.10104e-014
rhumerus -28.4174 28.2658 -40.8248
rradius 136.9
rwrist -77.4053
rhand 45.0835 0.737403
rfingers 7.12502
rthumb 66.4505 -3.8231
lclavicle 5.725e-014 -3.10104e-014
lhumerus -13.0355 -21.7831 34.1287
lradius 139.366
lwrist 76.3901
lhand 32.6629 45.1524
lfingers 7.12502
lthumb 56.0838 62.477
rfemur -30.9797 -11.4153 14.3003
rtibia 63.614
rfoot -30.4543 -21.9687
rtoes -16.0332
lfemur -31.6153 -3.42909 -24.4073
ltibia 59.5256
lfoot -30.8456 9.81414
ltoes -15.9483
2145
root 0.375503 16.3735 -0.0393037 4.85187 8.31391 3.78834
lowerback 14.1644 4.09335 -1.06565
upperback 5.1742 5.23651 -0.719915
thorax -2.48085 2.60475 -0.989594
lowerneck 0.991661 -2.31347 -4.32754
upperneck 10.7225 -3.16249 2.3178
head 3.41192 -1.63277 1.43009
rclavicle -2.78299e-015 -1.11319e-014
rhumerus -27.64 28.9144 -39.2925
rradius 136.995
rwrist -77.7811
rhand 44.1976 0.509019
rfingers 7.12502
rthumb 65.7698 -5.33177
lclavicle -2.78299e-015 -1.11319e-014
lhumerus -11.721 -22.184 32.3463
lradius 139.483
lwrist 76.5139
lhand 32.7319 44.9576
lfingers 7.12502
lthumb 56.1448 62.2345
rfemur -31.062 -11.3973 14.3632
rtibia 63.6573
rfoot -30.4246 -21.9897
rtoes -16.0454
lfemur -31.7142 -3.44265 -24.3514
ltibia 59.578
lfoot -30.8246 9.82975
ltoes -16.2513
2146
root 0.374607 16.3725 -0.0455257 4.90571 8.30946 3.7899
lowerback 14.208 4.13862 -1.09285
upperback 5.12952 5.29045 -0.727117
thorax -2.5524 2.63089 -0.996277
lowerneck 1.78199 -2.3325 -4.44686
upperneck 8.38906 -3.23585 2.67957
head 2.48619 -1.66054 1.57073
rclavicle -2.42517e-014 -7.95139e-015
rhumerus -26.874 29.5714 -37.7948
rradius 137.112
rwrist -78.1348
rhand 43.6293 0.39446
rfingers 7.12502
rthumb 65.3267 -6.22898
lclavicle -2.42517e-014 -7.95139e-015
lhumerus -10.4472 -22.4775 30.5794
lradius 139.672
lwrist 76.676
lhand 32.6445 44.8368
lfingers 7.12502
lthumb 56.0674 62.1741
rfemur -31.1814 -11.3856 14.3744
rtibia 63.7048
rfoot -30.3852 -21.991
rtoes -16.1108
lfemur -31.8261 -3.42211 -24.3449
ltibia 59.6182
lfoot -30.8609 9.6922
ltoes -16.0697
2147
root 0.374866 16.3721 -0.0532212 4.95527 8.29226 3.78375
lowerback 14.2465 4.16953 -1.10655
upperback 5.0884 5.32725 -0.739431
thorax -2.61591 2.6487 -1.01247
lowerneck 2.43091 -2.3124 -4.41474
upperneck 6.16452 -3.23118 2.87813
head 1.64648 -1.65172 1.63395
rclavicle 4.96962e-015 1.59028e-014
rhumerus -26.1234 30.2072 -36.3371
rradius 137.276
rwrist -78.5053
rhand 43.4301 -0.0273072
rfingers 7.12502
rthumb 65.1702 -6.91819
lclavicle 4.96962e-015 1.59028e-014
lhumerus -9.2007 -22.7543 28.8472
lradius 139.924
lwrist 76.5243
lhand 32.6895 44.8012
lfingers 7.12502
lthumb 56.1073 62.1075
rfemur -31.2957 -11.3677 14.3911
rtibia 63.7408
rfoot -30.2923 -22.0195
rtoes -16.0893
lfemur -31.9363 -3.40407 -24.3377
ltibia 59.6581
lfoot -30.865 9.56665
ltoes -15.6476
